<?xml version="1.0" encoding="UTF-8" standalone="no"?>
<!-- Generator: Adobe Illustrator 19.1.0, SVG Export Plug-In . SVG Version: 6.00 Build 0)  -->

<svg
   xmlns:dc="http://purl.org/dc/elements/1.1/"
   xmlns:cc="http://creativecommons.org/ns#"
   xmlns:rdf="http://www.w3.org/1999/02/22-rdf-syntax-ns#"
   xmlns:svg="http://www.w3.org/2000/svg"
   xmlns="http://www.w3.org/2000/svg"
   xmlns:sodipodi="http://sodipodi.sourceforge.net/DTD/sodipodi-0.dtd"
   xmlns:inkscape="http://www.inkscape.org/namespaces/inkscape"
   version="1.1"
   id="Capa_1"
   x="0px"
   y="0px"
   viewBox="0 0 471.2 471.2"
   style="enable-background:new 0 0 471.2 471.2;"
   xml:space="preserve"
   sodipodi:docname="logout.svg"
   inkscape:version="0.92.4 (5da689c313, 2019-01-14)"><metadata
   id="metadata45"><rdf:RDF><cc:Work
       rdf:about=""><dc:format>image/svg+xml</dc:format><dc:type
         rdf:resource="http://purl.org/dc/dcmitype/StillImage" /></cc:Work></rdf:RDF></metadata><defs
   id="defs43" /><sodipodi:namedview
   pagecolor="#ffffff"
   bordercolor="#666666"
   borderopacity="1"
   objecttolerance="10"
   gridtolerance="10"
   guidetolerance="10"
   inkscape:pageopacity="0"
   inkscape:pageshadow="2"
   inkscape:window-width="1096"
   inkscape:window-height="522"
   id="namedview41"
   showgrid="false"
   inkscape:zoom="0.50084888"
   inkscape:cx="235.60001"
   inkscape:cy="235.60001"
   inkscape:window-x="0"
   inkscape:window-y="0"
   inkscape:window-maximized="0"
   inkscape:current-layer="Capa_1" />
<g
   id="g8"
   style="fill:#808080">
	<g
   id="g6"
   style="fill:#808080">
		<path
   d="M227.619,444.2h-122.9c-33.4,0-60.5-27.2-60.5-60.5V87.5c0-33.4,27.2-60.5,60.5-60.5h124.9c7.5,0,13.5-6,13.5-13.5    s-6-13.5-13.5-13.5h-124.9c-48.3,0-87.5,39.3-87.5,87.5v296.2c0,48.3,39.3,87.5,87.5,87.5h122.9c7.5,0,13.5-6,13.5-13.5    S235.019,444.2,227.619,444.2z"
   id="path2"
   style="fill:#808080" />
		<path
   d="M450.019,226.1l-85.8-85.8c-5.3-5.3-13.8-5.3-19.1,0c-5.3,5.3-5.3,13.8,0,19.1l62.8,62.8h-273.9c-7.5,0-13.5,6-13.5,13.5    s6,13.5,13.5,13.5h273.9l-62.8,62.8c-5.3,5.3-5.3,13.8,0,19.1c2.6,2.6,6.1,4,9.5,4s6.9-1.3,9.5-4l85.8-85.8    C455.319,239.9,455.319,231.3,450.019,226.1z"
   id="path4"
   style="fill:#808080" />
	</g>
</g>
<g
   id="g10">
</g>
<g
   id="g12">
</g>
<g
   id="g14">
</g>
<g
   id="g16">
</g>
<g
   id="g18">
</g>
<g
   id="g20">
</g>
<g
   id="g22">
</g>
<g
   id="g24">
</g>
<g
   id="g26">
</g>
<g
   id="g28">
</g>
<g
   id="g30">
</g>
<g
   id="g32">
</g>
<g
   id="g34">
</g>
<g
   id="g36">
</g>
<g
   id="g38">
</g>
</svg>