<?xml version="1.0" encoding="UTF-8" standalone="no"?>
<!-- Generator: Adobe Illustrator 19.1.0, SVG Export Plug-In . SVG Version: 6.00 Build 0)  -->

<svg
   xmlns:dc="http://purl.org/dc/elements/1.1/"
   xmlns:cc="http://creativecommons.org/ns#"
   xmlns:rdf="http://www.w3.org/1999/02/22-rdf-syntax-ns#"
   xmlns:svg="http://www.w3.org/2000/svg"
   xmlns="http://www.w3.org/2000/svg"
   xmlns:sodipodi="http://sodipodi.sourceforge.net/DTD/sodipodi-0.dtd"
   xmlns:inkscape="http://www.inkscape.org/namespaces/inkscape"
   version="1.1"
   id="Capa_1"
   x="0px"
   y="0px"
   viewBox="0 0 481.6 481.6"
   style="enable-background:new 0 0 481.6 481.6;"
   xml:space="preserve"
   sodipodi:docname="monitor.svg"
   inkscape:version="0.92.4 (5da689c313, 2019-01-14)"><metadata
   id="metadata3963"><rdf:RDF><cc:Work
       rdf:about=""><dc:format>image/svg+xml</dc:format><dc:type
         rdf:resource="http://purl.org/dc/dcmitype/StillImage" /></cc:Work></rdf:RDF></metadata><defs
   id="defs3961" /><sodipodi:namedview
   pagecolor="#ffffff"
   bordercolor="#666666"
   borderopacity="1"
   objecttolerance="10"
   gridtolerance="10"
   guidetolerance="10"
   inkscape:pageopacity="0"
   inkscape:pageshadow="2"
   inkscape:window-width="1096"
   inkscape:window-height="522"
   id="namedview3959"
   showgrid="false"
   inkscape:zoom="0.49003322"
   inkscape:cx="240.8"
   inkscape:cy="240.8"
   inkscape:window-x="0"
   inkscape:window-y="0"
   inkscape:window-maximized="0"
   inkscape:current-layer="Capa_1" />
<g
   id="g3926"
   style="fill:#808080">
	<path
   d="M422.2,24.5H59.4C26.7,24.5,0,51.1,0,83.9V314c0,32.7,26.6,59.4,59.4,59.4h167.9v56.7h-83.7c-7.5,0-13.5,6-13.5,13.5   s6,13.5,13.5,13.5H338c7.5,0,13.5-6,13.5-13.5s-6-13.5-13.5-13.5h-83.7v-56.7h167.9c32.7,0,59.4-26.6,59.4-59.4V83.9   C481.6,51.1,455,24.5,422.2,24.5z M59.4,51.5h362.9c17.8,0,32.4,14.5,32.4,32.4v192.3H27V83.9C27,66,41.5,51.5,59.4,51.5z    M422.2,346.4H59.4C41.6,346.4,27,331.9,27,314v-10.8h427.6V314C454.6,331.8,440.1,346.4,422.2,346.4z"
   id="path3924"
   style="fill:#808080" />
</g>
<g
   id="g3928">
</g>
<g
   id="g3930">
</g>
<g
   id="g3932">
</g>
<g
   id="g3934">
</g>
<g
   id="g3936">
</g>
<g
   id="g3938">
</g>
<g
   id="g3940">
</g>
<g
   id="g3942">
</g>
<g
   id="g3944">
</g>
<g
   id="g3946">
</g>
<g
   id="g3948">
</g>
<g
   id="g3950">
</g>
<g
   id="g3952">
</g>
<g
   id="g3954">
</g>
<g
   id="g3956">
</g>
</svg>